<svg width="64" height="64" viewBox="0 0 64 64" fill="none" xmlns="http://www.w3.org/2000/svg">
<rect width="64" height="64" rx="32" fill="#FAFAFA"/>
<path d="M35.7959 23.8535H28.1868C25.7909 23.8535 23.8359 25.7893 23.8359 28.2043V35.8135C23.8359 38.2093 25.7718 40.1644 28.1868 40.1644H35.7959C38.1918 40.1644 40.1468 38.2285 40.1468 35.8135V28.2043C40.1468 25.7893 38.2109 23.8535 35.7959 23.8535ZM34.8759 33.8777L33.1701 36.8485C32.9209 37.2893 32.4609 37.5194 32.0009 37.5194C31.7709 37.5194 31.5218 37.4618 31.3301 37.3468C30.6784 36.9827 30.4484 36.1585 30.8318 35.5068L32.0584 33.3793H30.9851C30.1226 33.3793 29.4134 32.996 29.0301 32.3443C28.6468 31.6927 28.6851 30.8877 29.1259 30.1402L30.8318 27.1693C31.2151 26.5177 32.0393 26.3068 32.6718 26.671C33.3234 27.0352 33.5534 27.8593 33.1701 28.511L31.9434 30.6385H33.0168C33.8793 30.6385 34.5884 31.0218 34.9718 31.6735C35.3551 32.3252 35.3168 33.1302 34.8759 33.8777Z" fill="#34C759"/>
<path d="M49.7298 33.4382C50.5348 33.4382 51.1673 32.7865 51.1673 32.0007C51.1673 31.1957 50.5348 30.5632 49.7298 30.5632H47.334V26.3465H49.7298C50.5348 26.3465 51.1673 25.714 51.1673 24.909C51.1673 24.1232 50.5348 23.4715 49.7298 23.4715H46.8932C45.9732 20.424 43.5773 18.0282 40.5298 17.1082V14.2715C40.5298 13.4857 39.8782 12.834 39.0923 12.834C38.3065 12.834 37.6548 13.4857 37.6548 14.2715V16.6673H33.4382V14.2715C33.4382 13.4857 32.7865 12.834 32.0007 12.834C31.2148 12.834 30.5632 13.4857 30.5632 14.2715V16.6673H26.3657V14.2715C26.3657 13.4857 25.714 12.834 24.9282 12.834C24.1232 12.834 23.4907 13.4857 23.4907 14.2715V17.1082C20.424 18.0282 18.0282 20.424 17.1082 23.4715H14.2715C13.4857 23.4715 12.834 24.1232 12.834 24.909C12.834 25.714 13.4857 26.3465 14.2715 26.3465H16.6673V30.5632H14.2715C13.4857 30.5632 12.834 31.1957 12.834 32.0007C12.834 32.7865 13.4857 33.4382 14.2715 33.4382H16.6673V37.6548H14.2715C13.4857 37.6548 12.834 38.2873 12.834 39.0923C12.834 39.8782 13.4857 40.5298 14.2715 40.5298H17.1082C18.009 43.5773 20.424 45.9732 23.4907 46.8932V49.7298C23.4907 50.5157 24.1232 51.1673 24.9282 51.1673C25.714 51.1673 26.3657 50.5157 26.3657 49.7298V47.334H30.5823V49.7298C30.5823 50.5157 31.2148 51.1673 32.0198 51.1673C32.8057 51.1673 33.4573 50.5157 33.4573 49.7298V47.334H37.6548V49.7298C37.6548 50.5157 38.3065 51.1673 39.0923 51.1673C39.8782 51.1673 40.5298 50.5157 40.5298 49.7298V46.8932C43.5773 45.9732 45.9732 43.5773 46.8932 40.5298H49.7298C50.5348 40.5298 51.1673 39.8782 51.1673 39.0923C51.1673 38.2873 50.5348 37.6548 49.7298 37.6548H47.334V33.4382H49.7298ZM42.0823 36.3323C42.0823 39.4948 39.4948 42.0823 36.3323 42.0823H27.669C24.5065 42.0823 21.919 39.4948 21.919 36.3323V27.669C21.919 24.5065 24.5065 21.919 27.669 21.919H36.3323C39.4948 21.919 42.0823 24.5065 42.0823 27.669V36.3323Z" fill="#34C759"/>
</svg>
