<svg width="20" height="20" viewBox="0 0 20 20" fill="none" xmlns="http://www.w3.org/2000/svg">
<g clip-path="url(#clip0_471_11951)">
<path fill-rule="evenodd" clip-rule="evenodd" d="M20 10.0625C20 4.50375 15.5225 0 10 0C4.4775 0 0 4.505 0 10.0625C0 15.0825 3.6575 19.245 8.4375 20V12.97H5.8975V10.0625H8.4375V7.845C8.4375 5.32375 9.93 3.93125 12.215 3.93125C13.3088 3.93125 14.4525 4.1275 14.4525 4.1275V6.6025H13.1925C11.95 6.6025 11.5625 7.3775 11.5625 8.17375V10.0612H14.3363L13.8925 12.9688H11.5625V20C16.3425 19.245 20 15.0825 20 10.0625Z" fill="#E3E1E1"/>
</g>
<defs>
<clipPath id="clip0_471_11951">
<rect width="20" height="20" fill="white"/>
</clipPath>
</defs>
</svg>
