<svg width="64" height="64" viewBox="0 0 64 64" fill="none" xmlns="http://www.w3.org/2000/svg">
<rect width="64" height="64" rx="32" fill="#FAFAFA"/>
<path d="M43.5 12.833H20.5C17.3183 12.833 14.75 15.3822 14.75 18.5255V39.4363C14.75 42.5797 17.3183 45.1288 20.5 45.1288H21.9567C23.49 45.1288 24.9467 45.723 26.02 46.7963L29.2975 50.0355C30.7925 51.5113 33.2267 51.5113 34.7217 50.0355L37.9992 46.7963C39.0725 45.723 40.5483 45.1288 42.0625 45.1288H43.5C46.6817 45.1288 49.25 42.5797 49.25 39.4363V18.5255C49.25 15.3822 46.6817 12.833 43.5 12.833ZM40.97 29.1247L38.7275 35.948C38.44 37.0788 37.2325 37.9988 36.0058 37.9988H32.46C31.8467 37.9988 30.9842 37.788 30.6008 37.4047L27.7833 35.2005C27.7258 36.4272 27.17 36.9447 25.8092 36.9447H24.8892C23.4708 36.9447 22.8958 36.3888 22.8958 35.0472V25.9047C22.8958 24.563 23.4708 24.0072 24.8892 24.0072H25.8283C27.2467 24.0072 27.8217 24.563 27.8217 25.9047V26.5947L31.54 21.0747C31.9233 20.4805 32.9008 20.0588 33.725 20.3847C34.6258 20.6913 35.2008 21.688 35.0092 22.5697L34.5492 25.5597C34.4917 25.8088 34.5492 26.0772 34.7217 26.2497C34.875 26.4222 35.105 26.5372 35.3542 26.5372H39.0917C39.82 26.5372 40.4333 26.8247 40.7975 27.3422C41.1425 27.8405 41.2 28.473 40.97 29.1247Z" fill="#0D6CF2"/>
</svg>
