<svg width="20" height="20" viewBox="0 0 20 20" fill="none" xmlns="http://www.w3.org/2000/svg">
<g clip-path="url(#clip0_471_11953)">
<path d="M18.525 6.59106e-05H1.475C1.0883 -0.00360458 0.715921 0.14616 0.439444 0.416545C0.162968 0.68693 0.00494469 1.05588 0 1.44257L0 18.5601C0.00527221 18.9464 0.16348 19.3149 0.439957 19.5848C0.716435 19.8548 1.08863 20.0041 1.475 20.0001H18.525C18.9118 20.0034 19.2842 19.8534 19.5606 19.5828C19.8371 19.3122 19.9951 18.9431 20 18.5563V1.43757C19.9931 1.05197 19.8343 0.684673 19.5581 0.415504C19.2819 0.146334 18.9106 -0.00295998 18.525 6.59106e-05ZM5.93 17.0501H2.96125V7.49507H5.93V17.0476V17.0501ZM4.455 6.19507C4.02735 6.19814 3.61388 6.0419 3.29513 5.75679C2.97637 5.47168 2.77517 5.07812 2.73072 4.65278C2.68626 4.22744 2.80174 3.80078 3.05466 3.45592C3.30757 3.11107 3.6798 2.87271 4.09884 2.78729C4.51788 2.70187 4.95372 2.77551 5.32143 2.99385C5.68915 3.21219 5.96242 3.55961 6.08801 3.96841C6.21359 4.37721 6.18249 4.81812 6.00077 5.20525C5.81905 5.59238 5.49973 5.898 5.105 6.06257C4.89599 6.1483 4.67215 6.19204 4.44625 6.19132L4.455 6.19507ZM17.0487 17.0488H14.08V12.4013C14.08 11.2951 14.0612 9.87007 12.5375 9.87007C11.015 9.87007 10.7562 11.0776 10.7562 12.3301V17.0488H7.79125V7.49632H10.6375V8.80882H10.6775C11.0737 8.05757 12.04 7.26507 13.485 7.26507C16.4913 7.25882 17.0487 9.23757 17.0487 11.8026V17.0488Z" fill="#E3E1E1"/>
</g>
<defs>
<clipPath id="clip0_471_11953">
<rect width="20" height="20" fill="white"/>
</clipPath>
</defs>
</svg>
