<svg width="64" height="64" viewBox="0 0 64 64" fill="none" xmlns="http://www.w3.org/2000/svg">
<rect width="64" height="64" rx="32" fill="#FAFAFA"/>
<path d="M45.0332 27.9941C42.8674 27.9941 40.9315 29.0483 39.724 30.6583C38.5165 29.0483 36.5807 27.9941 34.4149 27.9941C30.754 27.9941 27.7832 30.9841 27.7832 34.6641C27.7832 36.0825 28.0132 37.405 28.3965 38.6125C30.2749 44.5733 36.1015 48.1575 38.9765 49.135C39.379 49.2691 40.0499 49.2691 40.4524 49.135C43.3274 48.1575 49.154 44.5925 51.0324 38.6125C51.4349 37.3858 51.6457 36.0825 51.6457 34.6641C51.6649 30.9841 48.694 27.9941 45.0332 27.9941Z" fill="#FFCC00"/>
<path d="M48.7705 24.9847C48.7705 25.4256 48.3297 25.7131 47.908 25.5981C45.3205 24.9272 42.4838 25.4831 40.3372 27.0164C39.9155 27.3231 39.3405 27.3231 38.938 27.0164C37.4238 25.9047 35.5838 25.2914 33.648 25.2914C28.703 25.2914 24.678 29.3356 24.678 34.3189C24.678 39.7239 27.2655 43.7681 29.8722 46.4706C30.0063 46.6047 29.8913 46.8347 29.7188 46.7581C24.4863 44.9756 12.833 37.5772 12.833 24.9847C12.833 19.4264 17.2988 14.9414 22.8188 14.9414C26.0963 14.9414 28.9905 16.5131 30.8113 18.9472C32.6513 16.5131 35.5455 14.9414 38.8038 14.9414C44.3047 14.9414 48.7705 19.4264 48.7705 24.9847Z" fill="#FFCC00"/>
</svg>
