<svg width="64" height="64" viewBox="0 0 64 64" fill="none" xmlns="http://www.w3.org/2000/svg">
<rect width="64" height="64" rx="32" fill="#FAFAFA"/>
<path d="M49.7291 44.4004L46.5666 45.1479C45.8575 45.3204 45.3016 45.8571 45.1483 46.5662L44.4775 49.3837C44.1133 50.9171 42.1583 51.3962 41.1425 50.1887L35.4116 43.5954C34.9516 43.0587 35.2008 42.2154 35.8908 42.0429C39.2833 41.2187 42.3308 39.3212 44.5733 36.6187C44.9375 36.1779 45.5891 36.1204 45.9916 36.5229L50.2466 40.7779C51.7033 42.2346 51.1858 44.0554 49.7291 44.4004Z" fill="#FF3B30"/>
<path d="M14.1751 44.4004L17.3376 45.1479C18.0467 45.3204 18.6026 45.8571 18.7559 46.5662L19.4267 49.3837C19.7909 50.9171 21.7459 51.3962 22.7617 50.1887L28.4926 43.5954C28.9526 43.0587 28.7034 42.2154 28.0134 42.0429C24.6209 41.2187 21.5734 39.3212 19.3309 36.6187C18.9667 36.1779 18.3151 36.1204 17.9126 36.5229L13.6576 40.7779C12.2009 42.2346 12.7184 44.0554 14.1751 44.4004Z" fill="#FF3B30"/>
<path d="M31.9997 12.833C24.5822 12.833 18.583 18.8322 18.583 26.2497C18.583 29.0288 19.4072 31.578 20.8255 33.7055C22.8955 36.7722 26.173 38.938 29.9872 39.4938C30.6388 39.6088 31.3097 39.6663 31.9997 39.6663C32.6897 39.6663 33.3605 39.6088 34.0122 39.4938C37.8263 38.938 41.1038 36.7722 43.1738 33.7055C44.5922 31.578 45.4163 29.0288 45.4163 26.2497C45.4163 18.8322 39.4172 12.833 31.9997 12.833ZM37.8647 25.828L36.2738 27.4188C36.0055 27.6872 35.8522 28.2047 35.948 28.588L36.408 30.5622C36.7722 32.1147 35.948 32.728 34.568 31.9038L32.6513 30.773C32.3063 30.5622 31.7313 30.5622 31.3863 30.773L29.4697 31.9038C28.0897 32.7088 27.2655 32.1147 27.6297 30.5622L28.0897 28.588C28.1663 28.2238 28.0322 27.6872 27.7638 27.4188L26.1347 25.828C25.1955 24.8888 25.5022 23.9497 26.8055 23.7388L28.8563 23.3938C29.2013 23.3363 29.6038 23.0297 29.7572 22.723L30.888 20.4613C31.5013 19.2347 32.498 19.2347 33.1113 20.4613L34.2422 22.723C34.3955 23.0297 34.798 23.3363 35.1622 23.3938L37.213 23.7388C38.4972 23.9497 38.8038 24.8888 37.8647 25.828Z" fill="#FF3B30"/>
</svg>
